<mxfile host="app.diagrams.net" modified="2024-05-08T03:31:43.617Z" agent="Mozilla/5.0 (X11; Ubuntu; Linux x86_64; rv:124.0) Gecko/20100101 Firefox/124.0" etag="ymOi3cGKBH9MVif88uBB" version="24.2.1" type="device">
  <diagram id="C5RBs43oDa-KdzZeNtuy" name="Page-1">
    <mxGraphModel dx="2326" dy="1182" grid="1" gridSize="10" guides="1" tooltips="1" connect="1" arrows="1" fold="1" page="1" pageScale="1" pageWidth="827" pageHeight="1169" math="0" shadow="0">
      <root>
        <mxCell id="WIyWlLk6GJQsqaUBKTNV-0" />
        <mxCell id="WIyWlLk6GJQsqaUBKTNV-1" parent="WIyWlLk6GJQsqaUBKTNV-0" />
        <mxCell id="p9AJm_t6Ir7hi9V87lgn-8" style="edgeStyle=orthogonalEdgeStyle;rounded=0;orthogonalLoop=1;jettySize=auto;html=1;exitX=0.5;exitY=1;exitDx=0;exitDy=0;exitPerimeter=0;entryX=0.5;entryY=0;entryDx=0;entryDy=0;strokeWidth=2;fontSize=12;fontColor=#000000;fontStyle=0;align=center;verticalAlign=middle;" edge="1" parent="WIyWlLk6GJQsqaUBKTNV-1" source="p9AJm_t6Ir7hi9V87lgn-0" target="p9AJm_t6Ir7hi9V87lgn-1">
          <mxGeometry relative="1" as="geometry" />
        </mxCell>
        <mxCell id="p9AJm_t6Ir7hi9V87lgn-33" value="" style="edgeStyle=orthogonalEdgeStyle;rounded=0;orthogonalLoop=1;jettySize=auto;html=1;" edge="1" parent="WIyWlLk6GJQsqaUBKTNV-1" source="p9AJm_t6Ir7hi9V87lgn-0" target="p9AJm_t6Ir7hi9V87lgn-1">
          <mxGeometry relative="1" as="geometry" />
        </mxCell>
        <mxCell id="p9AJm_t6Ir7hi9V87lgn-0" value="Начало" style="strokeWidth=2;html=1;shape=mxgraph.flowchart.terminator;whiteSpace=wrap;fontSize=12;fontColor=#000000;fontStyle=0;align=center;verticalAlign=middle;" vertex="1" parent="WIyWlLk6GJQsqaUBKTNV-1">
          <mxGeometry x="262" y="160" width="100" height="60" as="geometry" />
        </mxCell>
        <mxCell id="p9AJm_t6Ir7hi9V87lgn-15" style="edgeStyle=orthogonalEdgeStyle;rounded=0;orthogonalLoop=1;jettySize=auto;html=1;exitX=0.5;exitY=1;exitDx=0;exitDy=0;entryX=0.5;entryY=0;entryDx=0;entryDy=0;strokeWidth=2;fontSize=12;fontColor=#000000;fontStyle=0;align=center;verticalAlign=middle;" edge="1" parent="WIyWlLk6GJQsqaUBKTNV-1" source="p9AJm_t6Ir7hi9V87lgn-1" target="p9AJm_t6Ir7hi9V87lgn-2">
          <mxGeometry relative="1" as="geometry">
            <mxPoint x="312" y="320" as="targetPoint" />
          </mxGeometry>
        </mxCell>
        <mxCell id="p9AJm_t6Ir7hi9V87lgn-1" value="Установка счётчиков" style="rounded=0;whiteSpace=wrap;html=1;strokeWidth=2;fontSize=12;fontColor=#000000;fontStyle=0;align=center;verticalAlign=middle;" vertex="1" parent="WIyWlLk6GJQsqaUBKTNV-1">
          <mxGeometry x="252" y="250" width="120" height="60" as="geometry" />
        </mxCell>
        <mxCell id="p9AJm_t6Ir7hi9V87lgn-14" style="edgeStyle=orthogonalEdgeStyle;rounded=0;orthogonalLoop=1;jettySize=auto;html=1;exitX=0.5;exitY=1;exitDx=0;exitDy=0;entryX=0.5;entryY=0;entryDx=0;entryDy=0;strokeWidth=2;fontSize=12;fontColor=#000000;fontStyle=0;align=center;verticalAlign=middle;" edge="1" parent="WIyWlLk6GJQsqaUBKTNV-1" source="p9AJm_t6Ir7hi9V87lgn-2" target="p9AJm_t6Ir7hi9V87lgn-3">
          <mxGeometry relative="1" as="geometry" />
        </mxCell>
        <mxCell id="p9AJm_t6Ir7hi9V87lgn-2" value="Получение символа" style="shape=parallelogram;perimeter=parallelogramPerimeter;whiteSpace=wrap;html=1;fixedSize=1;strokeWidth=2;fontSize=12;fontColor=#000000;fontStyle=0;align=center;verticalAlign=middle;" vertex="1" parent="WIyWlLk6GJQsqaUBKTNV-1">
          <mxGeometry x="235" y="340" width="150" height="60" as="geometry" />
        </mxCell>
        <mxCell id="p9AJm_t6Ir7hi9V87lgn-10" style="edgeStyle=orthogonalEdgeStyle;rounded=0;orthogonalLoop=1;jettySize=auto;html=1;exitX=1;exitY=0.5;exitDx=0;exitDy=0;entryX=0;entryY=0.5;entryDx=0;entryDy=0;strokeWidth=2;fontSize=12;fontColor=#000000;fontStyle=0;align=center;verticalAlign=middle;" edge="1" parent="WIyWlLk6GJQsqaUBKTNV-1" source="p9AJm_t6Ir7hi9V87lgn-3" target="p9AJm_t6Ir7hi9V87lgn-5">
          <mxGeometry relative="1" as="geometry" />
        </mxCell>
        <mxCell id="p9AJm_t6Ir7hi9V87lgn-13" style="edgeStyle=orthogonalEdgeStyle;rounded=0;orthogonalLoop=1;jettySize=auto;html=1;exitX=0.5;exitY=1;exitDx=0;exitDy=0;entryX=0.5;entryY=0;entryDx=0;entryDy=0;strokeWidth=2;fontSize=12;fontColor=#000000;fontStyle=0;align=center;verticalAlign=middle;" edge="1" parent="WIyWlLk6GJQsqaUBKTNV-1" source="p9AJm_t6Ir7hi9V87lgn-3" target="p9AJm_t6Ir7hi9V87lgn-4">
          <mxGeometry relative="1" as="geometry">
            <mxPoint x="312" y="540" as="targetPoint" />
          </mxGeometry>
        </mxCell>
        <mxCell id="p9AJm_t6Ir7hi9V87lgn-3" value="&lt;div style=&quot;background-color: rgb(255, 255, 255); font-family: &amp;quot;Droid Sans Mono&amp;quot;, &amp;quot;monospace&amp;quot;, monospace; font-size: 12px; line-height: 19px; white-space: pre;&quot;&gt;&lt;div style=&quot;font-size: 12px;&quot;&gt;&lt;span style=&quot;font-size: 12px;&quot;&gt;Проверка на&lt;/span&gt;&lt;/div&gt;&lt;div style=&quot;font-size: 12px;&quot;&gt;&lt;span style=&quot;font-size: 12px;&quot;&gt;конец строки&lt;/span&gt;&lt;/div&gt;&lt;/div&gt;" style="rhombus;whiteSpace=wrap;html=1;strokeWidth=2;fontSize=12;fontColor=#000000;fontStyle=0;align=center;verticalAlign=middle;" vertex="1" parent="WIyWlLk6GJQsqaUBKTNV-1">
          <mxGeometry x="242" y="420" width="140" height="80" as="geometry" />
        </mxCell>
        <mxCell id="p9AJm_t6Ir7hi9V87lgn-19" style="edgeStyle=orthogonalEdgeStyle;rounded=0;orthogonalLoop=1;jettySize=auto;html=1;exitX=1;exitY=0.5;exitDx=0;exitDy=0;entryX=0;entryY=0.5;entryDx=0;entryDy=0;strokeWidth=2;fontSize=12;fontColor=#000000;fontStyle=0;align=center;verticalAlign=middle;" edge="1" parent="WIyWlLk6GJQsqaUBKTNV-1" source="p9AJm_t6Ir7hi9V87lgn-4" target="p9AJm_t6Ir7hi9V87lgn-16">
          <mxGeometry relative="1" as="geometry" />
        </mxCell>
        <mxCell id="p9AJm_t6Ir7hi9V87lgn-25" style="edgeStyle=orthogonalEdgeStyle;rounded=0;orthogonalLoop=1;jettySize=auto;html=1;exitX=0.5;exitY=1;exitDx=0;exitDy=0;entryX=0.5;entryY=0;entryDx=0;entryDy=0;strokeWidth=2;fontSize=12;fontColor=#000000;fontStyle=0;align=center;verticalAlign=middle;" edge="1" parent="WIyWlLk6GJQsqaUBKTNV-1" source="p9AJm_t6Ir7hi9V87lgn-4" target="p9AJm_t6Ir7hi9V87lgn-22">
          <mxGeometry relative="1" as="geometry" />
        </mxCell>
        <mxCell id="p9AJm_t6Ir7hi9V87lgn-4" value="&lt;div style=&quot;background-color: rgb(255, 255, 255); font-family: &amp;quot;Droid Sans Mono&amp;quot;, &amp;quot;monospace&amp;quot;, monospace; font-size: 12px; line-height: 19px; white-space: pre;&quot;&gt;&lt;div style=&quot;font-size: 12px;&quot;&gt;&lt;span style=&quot;font-size: 12px;&quot;&gt;Проверка на&lt;/span&gt;&lt;/div&gt;&lt;div style=&quot;font-size: 12px;&quot;&gt;&lt;span style=&quot;font-size: 12px;&quot;&gt;конец ввода&lt;/span&gt;&lt;/div&gt;&lt;/div&gt;" style="rhombus;whiteSpace=wrap;html=1;strokeWidth=2;fontSize=12;fontColor=#000000;fontStyle=0;align=center;verticalAlign=middle;" vertex="1" parent="WIyWlLk6GJQsqaUBKTNV-1">
          <mxGeometry x="240" y="545" width="142" height="80" as="geometry" />
        </mxCell>
        <mxCell id="p9AJm_t6Ir7hi9V87lgn-11" style="edgeStyle=orthogonalEdgeStyle;rounded=0;orthogonalLoop=1;jettySize=auto;html=1;exitX=1;exitY=0.5;exitDx=0;exitDy=0;entryX=0;entryY=0.5;entryDx=0;entryDy=0;strokeWidth=2;fontSize=12;fontColor=#000000;fontStyle=0;align=center;verticalAlign=middle;" edge="1" parent="WIyWlLk6GJQsqaUBKTNV-1" source="p9AJm_t6Ir7hi9V87lgn-5" target="p9AJm_t6Ir7hi9V87lgn-6">
          <mxGeometry relative="1" as="geometry" />
        </mxCell>
        <mxCell id="p9AJm_t6Ir7hi9V87lgn-5" value="&lt;div style=&quot;background-color: rgb(255, 255, 255); font-family: &amp;quot;Droid Sans Mono&amp;quot;, &amp;quot;monospace&amp;quot;, monospace; font-size: 12px; line-height: 19px; white-space: pre;&quot;&gt;&lt;div style=&quot;font-size: 12px;&quot;&gt;&lt;span style=&quot;font-size: 12px;&quot;&gt;Сохранение&lt;/span&gt;&lt;/div&gt;&lt;div style=&quot;font-size: 12px;&quot;&gt;&lt;span style=&quot;font-size: 12px;&quot;&gt;регистров&lt;/span&gt;&lt;/div&gt;&lt;/div&gt;" style="rounded=0;whiteSpace=wrap;html=1;strokeWidth=2;fontSize=12;fontColor=#000000;fontStyle=0;align=center;verticalAlign=middle;" vertex="1" parent="WIyWlLk6GJQsqaUBKTNV-1">
          <mxGeometry x="420" y="430" width="120" height="60" as="geometry" />
        </mxCell>
        <mxCell id="p9AJm_t6Ir7hi9V87lgn-12" style="edgeStyle=orthogonalEdgeStyle;rounded=0;orthogonalLoop=1;jettySize=auto;html=1;exitX=1;exitY=0.5;exitDx=0;exitDy=0;entryX=0;entryY=0.5;entryDx=0;entryDy=0;strokeWidth=2;fontSize=12;fontColor=#000000;fontStyle=0;align=center;verticalAlign=middle;" edge="1" parent="WIyWlLk6GJQsqaUBKTNV-1" source="p9AJm_t6Ir7hi9V87lgn-6" target="p9AJm_t6Ir7hi9V87lgn-7">
          <mxGeometry relative="1" as="geometry" />
        </mxCell>
        <mxCell id="p9AJm_t6Ir7hi9V87lgn-6" value="Вывод &lt;br style=&quot;font-size: 12px;&quot;&gt;&lt;div style=&quot;background-color: rgb(255, 255, 255); font-family: &amp;quot;Droid Sans Mono&amp;quot;, &amp;quot;monospace&amp;quot;, monospace; font-size: 12px; line-height: 19px; white-space: pre;&quot;&gt;&lt;div style=&quot;font-size: 12px;&quot;&gt;&lt;span style=&quot;font-size: 12px;&quot;&gt;line&lt;/span&gt;&lt;/div&gt;&lt;/div&gt;" style="shape=parallelogram;perimeter=parallelogramPerimeter;whiteSpace=wrap;html=1;fixedSize=1;strokeWidth=2;fontSize=12;fontColor=#000000;fontStyle=0;align=center;verticalAlign=middle;" vertex="1" parent="WIyWlLk6GJQsqaUBKTNV-1">
          <mxGeometry x="580" y="430" width="120" height="60" as="geometry" />
        </mxCell>
        <mxCell id="p9AJm_t6Ir7hi9V87lgn-9" style="edgeStyle=orthogonalEdgeStyle;rounded=0;orthogonalLoop=1;jettySize=auto;html=1;exitX=1;exitY=0.5;exitDx=0;exitDy=0;strokeWidth=2;fontSize=12;fontColor=#000000;fontStyle=0;align=center;verticalAlign=middle;" edge="1" parent="WIyWlLk6GJQsqaUBKTNV-1" source="p9AJm_t6Ir7hi9V87lgn-7">
          <mxGeometry relative="1" as="geometry">
            <mxPoint x="310" y="230" as="targetPoint" />
            <Array as="points">
              <mxPoint x="880" y="460" />
              <mxPoint x="880" y="230" />
            </Array>
          </mxGeometry>
        </mxCell>
        <mxCell id="p9AJm_t6Ir7hi9V87lgn-7" value="Очистка &lt;br style=&quot;font-size: 12px;&quot;&gt;&lt;div style=&quot;background-color: rgb(255, 255, 255); font-family: &amp;quot;Droid Sans Mono&amp;quot;, &amp;quot;monospace&amp;quot;, monospace; font-size: 12px; line-height: 19px; white-space: pre;&quot;&gt;&lt;div style=&quot;font-size: 12px;&quot;&gt;&lt;span style=&quot;font-size: 12px;&quot;&gt;line&lt;/span&gt;&lt;/div&gt;&lt;/div&gt;" style="rounded=0;whiteSpace=wrap;html=1;strokeWidth=2;fontSize=12;fontColor=#000000;fontStyle=0;align=center;verticalAlign=middle;" vertex="1" parent="WIyWlLk6GJQsqaUBKTNV-1">
          <mxGeometry x="740" y="430" width="120" height="60" as="geometry" />
        </mxCell>
        <mxCell id="p9AJm_t6Ir7hi9V87lgn-20" style="edgeStyle=orthogonalEdgeStyle;rounded=0;orthogonalLoop=1;jettySize=auto;html=1;exitX=1;exitY=0.5;exitDx=0;exitDy=0;entryX=0;entryY=0.5;entryDx=0;entryDy=0;strokeWidth=2;fontSize=12;fontColor=#000000;fontStyle=0;align=center;verticalAlign=middle;" edge="1" parent="WIyWlLk6GJQsqaUBKTNV-1" source="p9AJm_t6Ir7hi9V87lgn-16" target="p9AJm_t6Ir7hi9V87lgn-17">
          <mxGeometry relative="1" as="geometry" />
        </mxCell>
        <mxCell id="p9AJm_t6Ir7hi9V87lgn-16" value="&lt;div style=&quot;background-color: rgb(255, 255, 255); font-family: &amp;quot;Droid Sans Mono&amp;quot;, &amp;quot;monospace&amp;quot;, monospace; font-size: 12px; line-height: 19px; white-space: pre;&quot;&gt;&lt;div style=&quot;font-size: 12px;&quot;&gt;&lt;span style=&quot;font-size: 12px;&quot;&gt;Вывод сообщения&lt;/span&gt;&lt;/div&gt;&lt;div style=&quot;font-size: 12px;&quot;&gt;&lt;span style=&quot;font-size: 12px;&quot;&gt;о завершении&lt;/span&gt;&lt;/div&gt;&lt;div style=&quot;font-size: 12px;&quot;&gt;&lt;span style=&quot;font-size: 12px;&quot;&gt;программы&lt;/span&gt;&lt;/div&gt;&lt;/div&gt;" style="shape=parallelogram;perimeter=parallelogramPerimeter;whiteSpace=wrap;html=1;fixedSize=1;strokeWidth=2;fontSize=12;fontColor=#000000;fontStyle=0;align=center;verticalAlign=middle;" vertex="1" parent="WIyWlLk6GJQsqaUBKTNV-1">
          <mxGeometry x="420" y="555" width="180" height="60" as="geometry" />
        </mxCell>
        <mxCell id="p9AJm_t6Ir7hi9V87lgn-17" value="&lt;div style=&quot;background-color: rgb(255, 255, 255); font-family: &amp;quot;Droid Sans Mono&amp;quot;, &amp;quot;monospace&amp;quot;, monospace; font-size: 12px; line-height: 19px; white-space: pre;&quot;&gt;&lt;div style=&quot;font-size: 12px;&quot;&gt;&lt;span style=&quot;font-size: 12px;&quot;&gt;Очистка экрана&lt;/span&gt;&lt;/div&gt;&lt;/div&gt;" style="rounded=0;whiteSpace=wrap;html=1;strokeWidth=2;fontSize=12;fontColor=#000000;fontStyle=0;align=center;verticalAlign=middle;" vertex="1" parent="WIyWlLk6GJQsqaUBKTNV-1">
          <mxGeometry x="620" y="555" width="120" height="60" as="geometry" />
        </mxCell>
        <mxCell id="p9AJm_t6Ir7hi9V87lgn-18" value="Конец" style="strokeWidth=2;html=1;shape=mxgraph.flowchart.terminator;whiteSpace=wrap;fontSize=12;fontColor=#000000;fontStyle=0;align=center;verticalAlign=middle;" vertex="1" parent="WIyWlLk6GJQsqaUBKTNV-1">
          <mxGeometry x="760" y="555" width="100" height="60" as="geometry" />
        </mxCell>
        <mxCell id="p9AJm_t6Ir7hi9V87lgn-21" style="edgeStyle=orthogonalEdgeStyle;rounded=0;orthogonalLoop=1;jettySize=auto;html=1;exitX=1;exitY=0.5;exitDx=0;exitDy=0;entryX=0;entryY=0.5;entryDx=0;entryDy=0;entryPerimeter=0;strokeWidth=2;fontSize=12;fontColor=#000000;fontStyle=0;align=center;verticalAlign=middle;" edge="1" parent="WIyWlLk6GJQsqaUBKTNV-1" source="p9AJm_t6Ir7hi9V87lgn-17" target="p9AJm_t6Ir7hi9V87lgn-18">
          <mxGeometry relative="1" as="geometry" />
        </mxCell>
        <mxCell id="p9AJm_t6Ir7hi9V87lgn-26" style="edgeStyle=orthogonalEdgeStyle;rounded=0;orthogonalLoop=1;jettySize=auto;html=1;exitX=0.5;exitY=1;exitDx=0;exitDy=0;entryX=0.5;entryY=0;entryDx=0;entryDy=0;strokeWidth=2;fontSize=12;fontColor=#000000;fontStyle=0;align=center;verticalAlign=middle;" edge="1" parent="WIyWlLk6GJQsqaUBKTNV-1" source="p9AJm_t6Ir7hi9V87lgn-22" target="p9AJm_t6Ir7hi9V87lgn-23">
          <mxGeometry relative="1" as="geometry" />
        </mxCell>
        <mxCell id="p9AJm_t6Ir7hi9V87lgn-22" value="&lt;div style=&quot;background-color: rgb(255, 255, 255); font-family: &amp;quot;Droid Sans Mono&amp;quot;, &amp;quot;monospace&amp;quot;, monospace; font-size: 12px; line-height: 19px; white-space: pre;&quot;&gt;&lt;div style=&quot;font-size: 12px;&quot;&gt;&lt;span style=&quot;font-size: 12px;&quot;&gt;Сохранение&lt;/span&gt;&lt;/div&gt;&lt;div style=&quot;font-size: 12px;&quot;&gt;&lt;span style=&quot;font-size: 12px;&quot;&gt;регистров&lt;/span&gt;&lt;/div&gt;&lt;/div&gt;" style="rounded=0;whiteSpace=wrap;html=1;strokeWidth=2;fontSize=12;fontColor=#000000;fontStyle=0;align=center;verticalAlign=middle;" vertex="1" parent="WIyWlLk6GJQsqaUBKTNV-1">
          <mxGeometry x="252" y="650" width="120" height="60" as="geometry" />
        </mxCell>
        <mxCell id="p9AJm_t6Ir7hi9V87lgn-27" style="edgeStyle=orthogonalEdgeStyle;rounded=0;orthogonalLoop=1;jettySize=auto;html=1;exitX=0.5;exitY=1;exitDx=0;exitDy=0;entryX=0.5;entryY=0;entryDx=0;entryDy=0;strokeWidth=2;fontSize=12;fontColor=#000000;fontStyle=0;align=center;verticalAlign=middle;" edge="1" parent="WIyWlLk6GJQsqaUBKTNV-1" source="p9AJm_t6Ir7hi9V87lgn-23" target="p9AJm_t6Ir7hi9V87lgn-24">
          <mxGeometry relative="1" as="geometry" />
        </mxCell>
        <mxCell id="p9AJm_t6Ir7hi9V87lgn-23" value="Сдвиг" style="rounded=0;whiteSpace=wrap;html=1;strokeWidth=2;fontSize=12;fontColor=#000000;fontStyle=0;align=center;verticalAlign=middle;" vertex="1" parent="WIyWlLk6GJQsqaUBKTNV-1">
          <mxGeometry x="250" y="730" width="120" height="60" as="geometry" />
        </mxCell>
        <mxCell id="p9AJm_t6Ir7hi9V87lgn-31" style="edgeStyle=orthogonalEdgeStyle;rounded=0;orthogonalLoop=1;jettySize=auto;html=1;exitX=0.5;exitY=1;exitDx=0;exitDy=0;entryX=0.5;entryY=0;entryDx=0;entryDy=0;strokeWidth=2;fontSize=12;fontColor=#000000;fontStyle=0;align=center;verticalAlign=middle;" edge="1" parent="WIyWlLk6GJQsqaUBKTNV-1" source="p9AJm_t6Ir7hi9V87lgn-24" target="p9AJm_t6Ir7hi9V87lgn-28">
          <mxGeometry relative="1" as="geometry" />
        </mxCell>
        <mxCell id="p9AJm_t6Ir7hi9V87lgn-24" value="&lt;div style=&quot;background-color: rgb(255, 255, 255); font-family: &amp;quot;Droid Sans Mono&amp;quot;, &amp;quot;monospace&amp;quot;, monospace; font-size: 12px; line-height: 19px; white-space: pre;&quot;&gt;&lt;div style=&quot;font-size: 12px;&quot;&gt;&lt;span style=&quot;font-size: 12px;&quot;&gt;Перевод символа в&lt;/span&gt;&lt;/div&gt;&lt;div style=&quot;font-size: 12px;&quot;&gt;&lt;span style=&quot;font-size: 12px;&quot;&gt;шестнадцатеричный&lt;/span&gt;&lt;/div&gt;&lt;div style=&quot;font-size: 12px;&quot;&gt;&lt;span style=&quot;font-size: 12px;&quot;&gt;эквивалент&lt;/span&gt;&lt;/div&gt;&lt;/div&gt;" style="rounded=0;whiteSpace=wrap;html=1;strokeWidth=2;fontSize=12;fontColor=#000000;fontStyle=0;align=center;verticalAlign=middle;" vertex="1" parent="WIyWlLk6GJQsqaUBKTNV-1">
          <mxGeometry x="227" y="810" width="170" height="60" as="geometry" />
        </mxCell>
        <mxCell id="p9AJm_t6Ir7hi9V87lgn-30" style="edgeStyle=orthogonalEdgeStyle;rounded=0;orthogonalLoop=1;jettySize=auto;html=1;exitX=1;exitY=0.5;exitDx=0;exitDy=0;strokeWidth=2;fontSize=12;fontColor=#000000;fontStyle=0;align=center;verticalAlign=middle;" edge="1" parent="WIyWlLk6GJQsqaUBKTNV-1" source="p9AJm_t6Ir7hi9V87lgn-28">
          <mxGeometry relative="1" as="geometry">
            <mxPoint x="400" y="460" as="targetPoint" />
            <Array as="points">
              <mxPoint x="401" y="930" />
            </Array>
          </mxGeometry>
        </mxCell>
        <mxCell id="p9AJm_t6Ir7hi9V87lgn-32" style="edgeStyle=orthogonalEdgeStyle;rounded=0;orthogonalLoop=1;jettySize=auto;html=1;exitX=0;exitY=0.5;exitDx=0;exitDy=0;strokeWidth=2;fontSize=12;fontColor=#000000;fontStyle=0;align=center;verticalAlign=middle;" edge="1" parent="WIyWlLk6GJQsqaUBKTNV-1" source="p9AJm_t6Ir7hi9V87lgn-28">
          <mxGeometry relative="1" as="geometry">
            <mxPoint x="310" y="320" as="targetPoint" />
            <Array as="points">
              <mxPoint x="220" y="930" />
              <mxPoint x="220" y="320" />
            </Array>
          </mxGeometry>
        </mxCell>
        <mxCell id="p9AJm_t6Ir7hi9V87lgn-28" value="Проверка счётчика = 0" style="rhombus;whiteSpace=wrap;html=1;strokeWidth=2;fontSize=12;fontColor=#000000;fontStyle=0;align=center;verticalAlign=middle;" vertex="1" parent="WIyWlLk6GJQsqaUBKTNV-1">
          <mxGeometry x="242" y="890" width="147" height="80" as="geometry" />
        </mxCell>
      </root>
    </mxGraphModel>
  </diagram>
</mxfile>
